<?xml version="1.0" encoding="UTF-8" standalone="no"?>
<!-- Created with Inkscape (http://www.inkscape.org/) -->

<svg
   width="1200"
   height="630"
   viewBox="0 0 317.49999 166.6875"
   version="1.1"
   id="svg5"
   xml:space="preserve"
   inkscape:version="1.3 (0e150ed6c4, 2023-07-21)"
   sodipodi:docname="cover.svg"
   inkscape:export-filename="cover.png"
   inkscape:export-xdpi="96"
   inkscape:export-ydpi="96"
   xmlns:inkscape="http://www.inkscape.org/namespaces/inkscape"
   xmlns:sodipodi="http://sodipodi.sourceforge.net/DTD/sodipodi-0.dtd"
   xmlns="http://www.w3.org/2000/svg"
   xmlns:svg="http://www.w3.org/2000/svg"><sodipodi:namedview
     id="namedview7"
     pagecolor="#ffffff"
     bordercolor="#666666"
     borderopacity="1.0"
     inkscape:showpageshadow="2"
     inkscape:pageopacity="0.0"
     inkscape:pagecheckerboard="0"
     inkscape:deskcolor="#d1d1d1"
     inkscape:document-units="mm"
     showgrid="false"
     inkscape:zoom="0.914906"
     inkscape:cx="525.19057"
     inkscape:cy="344.84417"
     inkscape:window-width="1920"
     inkscape:window-height="1011"
     inkscape:window-x="0"
     inkscape:window-y="0"
     inkscape:window-maximized="1"
     inkscape:current-layer="layer1" /><defs
     id="defs2"><clipPath
       clipPathUnits="userSpaceOnUse"
       id="clipPath3986"><path
         d="M 0,512 H 512 V 0 H 0 Z"
         id="path3984" /></clipPath></defs><g
     inkscape:label="Layer 1"
     inkscape:groupmode="layer"
     id="layer1"><rect
       style="fill:#ffffff;fill-opacity:1;stroke-width:18.3898"
       id="rect2858"
       width="317.5"
       height="166.6875"
       x="0"
       y="-4.4408921e-16" /><text
       xml:space="preserve"
       style="font-style:normal;font-weight:normal;font-size:10.5833px;line-height:1.5;font-family:sans-serif;fill:#000000;fill-opacity:1;stroke:none;stroke-width:0.264583"
       x="158.60713"
       y="114.24527"
       id="text505"><tspan
         sodipodi:role="line"
         id="tspan503"
         style="font-style:normal;font-variant:normal;font-weight:normal;font-stretch:normal;font-family:Rubik;-inkscape-font-specification:Rubik;text-align:center;text-anchor:middle;stroke-width:0.264583"
         x="158.60713"
         y="114.24527">Making <tspan
   style="font-style:normal;font-variant:normal;font-weight:500;font-stretch:normal;font-family:Rubik;-inkscape-font-specification:'Rubik Medium'"
   id="tspan2649">A Real-Time &quot;Last N Days&quot; Leaderboard</tspan></tspan><tspan
         sodipodi:role="line"
         style="font-style:normal;font-variant:normal;font-weight:normal;font-stretch:normal;font-family:Rubik;-inkscape-font-specification:Rubik;text-align:center;text-anchor:middle;stroke-width:0.264583"
         x="158.60713"
         y="130.16418"
         id="tspan611">with <tspan
   style="font-style:normal;font-variant:normal;font-weight:500;font-stretch:normal;font-family:Rubik;-inkscape-font-specification:'Rubik Medium';fill:#00684a;fill-opacity:1"
   id="tspan1907">MongoDB</tspan><tspan
   style="font-style:normal;font-variant:normal;font-weight:500;font-stretch:normal;font-family:Rubik;-inkscape-font-specification:'Rubik Medium'"
   id="tspan2647"> Aggregation Framework</tspan></tspan></text><g
       id="_16.Podium"
       data-name="16.Podium"
       transform="matrix(0.1033002,0,0,0.1033002,132.07961,33.414378)"><path
         d="M 53.29,311.69 H 177.17 V 501 H 53.81 A 34.31,34.31 0 0 1 19.5,466.69 V 345.48 a 33.79,33.79 0 0 1 33.79,-33.79 z"
         fill="#f17b89"
         id="path3034" /><path
         d="m 211,206.52 h 90 a 33.79,33.79 0 0 1 33.79,33.79 V 501 H 177.17 V 240.3 A 33.79,33.79 0 0 1 211,206.52 Z"
         fill="#f5d367"
         id="path3036" /><path
         d="m 334.83,259.1 h 123.88 a 33.79,33.79 0 0 1 33.79,33.79 v 173.8 A 34.31,34.31 0 0 1 458.19,501 H 334.83 Z"
         fill="#74d1d1"
         id="path3038" /><path
         d="m 271.54,20.66 11.91,24.16 a 17.33,17.33 0 0 0 13,9.48 l 26.64,3.87 a 17.34,17.34 0 0 1 9.61,29.57 l -19.28,18.8 a 17.34,17.34 0 0 0 -5,15.35 l 4.58,26.54 a 17.33,17.33 0 0 1 -25.14,18.28 l -23.83,-12.54 a 17.34,17.34 0 0 0 -16.12,0 l -23.83,12.54 A 17.33,17.33 0 0 1 199,148.43 l 4.55,-26.54 a 17.34,17.34 0 0 0 -5,-15.35 l -19.28,-18.8 a 17.34,17.34 0 0 1 9.61,-29.57 l 26.64,-3.87 a 17.33,17.33 0 0 0 13,-9.48 l 11.91,-24.16 a 17.33,17.33 0 0 1 31.11,0 z"
         fill="#f5d367"
         id="path3040" /><path
         d="M 177.17,425.8 V 501 H 53.81 A 34.31,34.31 0 0 1 19.5,466.69 V 345.48 a 33.79,33.79 0 0 1 33.79,-33.79 h 53.51 a 499.43,499.43 0 0 0 70.37,114.11 z"
         fill="#d36e7f"
         id="path3042" /><path
         d="M 253.61,501 H 177.17 V 425.8 A 501.91,501.91 0 0 0 253.61,501 Z"
         fill="#e2c061"
         id="path3044" /><path
         d="M 177.17,507 H 53.81 A 40.35,40.35 0 0 1 13.5,466.69 V 408.8 a 6,6 0 0 1 12,0 v 57.89 A 28.34,28.34 0 0 0 53.81,495 H 171.17 V 317.69 H 53.29 A 27.83,27.83 0 0 0 25.5,345.48 V 362 a 6,6 0 0 1 -12,0 v -16.52 a 39.84,39.84 0 0 1 39.79,-39.79 h 123.88 a 6,6 0 0 1 6,6 V 501 a 6,6 0 0 1 -6,6 z"
         id="path3046" /><path
         d="m 19.5,395.9 a 6,6 0 0 1 -6,-6 v -9 a 6,6 0 0 1 12,0 v 9 a 6,6 0 0 1 -6,6 z"
         id="path3048" /><path
         d="M 334.83,507 H 177.17 a 6,6 0 0 1 -6,-6 V 240.31 A 39.84,39.84 0 0 1 211,200.52 h 90 a 39.84,39.84 0 0 1 39.79,39.79 V 501 a 6,6 0 0 1 -5.96,6 z M 183.17,495 H 328.83 V 240.31 A 27.81,27.81 0 0 0 301,212.52 h -90 a 27.81,27.81 0 0 0 -27.79,27.79 z"
         id="path3050" /><path
         d="M 458.19,507 H 334.83 a 6,6 0 0 1 -6,-6 V 259.1 a 6,6 0 0 1 6,-6 h 123.88 a 39.84,39.84 0 0 1 39.79,39.79 v 173.8 A 40.35,40.35 0 0 1 458.19,507 Z M 340.83,495 H 458.19 A 28.34,28.34 0 0 0 486.5,466.69 V 292.89 A 27.83,27.83 0 0 0 458.71,265.1 H 340.83 Z"
         id="path3052" /><path
         d="M 296,174.73 A 23.33,23.33 0 0 1 285.1,172 l -23.83,-12.54 a 11.35,11.35 0 0 0 -10.54,0 L 226.9,172 a 23.33,23.33 0 0 1 -33.84,-24.6 l 4.55,-26.55 a 11.33,11.33 0 0 0 -3.26,-10 L 175.07,92 A 23.34,23.34 0 0 1 188,52.24 l 26.64,-3.88 a 11.3,11.3 0 0 0 8.53,-6.2 L 235.08,18 a 23.32,23.32 0 0 1 41.84,0 l 11.91,24.15 a 11.3,11.3 0 0 0 8.53,6.2 L 324,52.24 A 23.34,23.34 0 0 1 336.93,92 l -19.28,18.8 a 11.33,11.33 0 0 0 -3.26,10 l 4.55,26.55 a 23.39,23.39 0 0 1 -23,27.31 z m -40,-28.55 a 23.42,23.42 0 0 1 10.86,2.68 l 23.82,12.54 a 11.33,11.33 0 0 0 16.43,-12 l -4.55,-26.55 a 23.35,23.35 0 0 1 6.71,-20.65 L 328.55,83.4 A 11.34,11.34 0 0 0 322.27,64.06 L 295.63,60.19 A 23.33,23.33 0 0 1 278.07,47.42 l -11.91,-24.1 a 11.33,11.33 0 0 0 -20.32,0 l -11.91,24.15 a 23.33,23.33 0 0 1 -17.56,12.77 l -26.64,3.87 a 11.34,11.34 0 0 0 -6.28,19.34 l 19.28,18.8 a 23.35,23.35 0 0 1 6.71,20.65 l -4.55,26.55 a 11.33,11.33 0 0 0 16.43,12 l 23.82,-12.54 A 23.42,23.42 0 0 1 256,146.18 Z"
         id="path3054" /></g></g></svg>
