<?xml version="1.0" encoding="UTF-8" standalone="no"?>
<!-- Created with Inkscape (http://www.inkscape.org/) -->

<svg
   version="1.1"
   id="svg255"
   width="682.66669"
   height="682.66669"
   viewBox="0 0 682.66669 682.66669"
   xmlns="http://www.w3.org/2000/svg"
   xmlns:svg="http://www.w3.org/2000/svg">
  <defs
     id="defs259">
    <clipPath
       clipPathUnits="userSpaceOnUse"
       id="clipPath269">
      <path
         d="M 0,512 H 512 V 0 H 0 Z"
         id="path267" />
    </clipPath>
  </defs>
  <g
     id="g261"
     transform="matrix(1.3333333,0,0,-1.3333333,0,682.66667)">
    <g
       id="g263">
      <g
         id="g265"
         clip-path="url(#clipPath269)">
        <g
           id="g271"
           transform="translate(90.127,323.4346)">
          <path
             d="m 0,0 h -35.351 v 90.332 c 0,11.096 8.996,20.091 20.091,20.091 H 0 Z"
             style="fill:#293e7d;fill-opacity:1;fill-rule:nonzero;stroke:none"
             id="path273" />
        </g>
        <g
           id="g275"
           transform="translate(421.873,323.4346)">
          <path
             d="m 0,0 h 35.351 v 90.332 c 0,11.096 -8.996,20.091 -20.091,20.091 H 0 Z"
             style="fill:#293e7d;fill-opacity:1;fill-rule:nonzero;stroke:none"
             id="path277" />
        </g>
        <g
           id="g279"
           transform="translate(421.873,317.5732)">
          <path
             d="m 0,0 h -331.746 v 160.631 c 0,8.767 7.106,15.873 15.873,15.873 h 300 C -7.106,176.504 0,169.398 0,160.631 Z"
             style="fill:#ffe591;fill-opacity:1;fill-rule:nonzero;stroke:none"
             id="path281" />
        </g>
        <g
           id="g283"
           transform="translate(406,494.0776)">
          <path
             d="m 0,0 h -40.619 v -176.504 h 56.492 v 160.63 C 15.873,-7.107 8.767,0 0,0"
             style="fill:#ff9d00;fill-opacity:1;fill-rule:nonzero;stroke:none"
             id="path285" />
        </g>
        <g
           id="g287"
           transform="translate(487.6699,126.1626)">
          <path
             d="m 0,0 h -463.34 c -13.437,0 -24.33,10.893 -24.33,24.33 v 207.112 c 0,13.437 10.893,24.33 24.33,24.33 H 0 c 13.438,0 24.33,-10.893 24.33,-24.33 V 24.33 C 24.33,10.893 13.438,0 0,0"
             style="fill:#3a90c8;fill-opacity:1;fill-rule:nonzero;stroke:none"
             id="path289" />
        </g>
        <g
           id="g291"
           transform="translate(487.6699,381.9346)">
          <path
             d="M 0,0 H -35.998 V -255.772 H 0 c 13.438,0 24.33,10.893 24.33,24.33 V -24.33 C 24.33,-10.893 13.438,0 0,0"
             style="fill:#2e6c9f;fill-opacity:1;fill-rule:nonzero;stroke:none"
             id="path293" />
        </g>
        <g
           id="g295"
           transform="translate(60.252,126.1626)">
          <path
             d="m 0,0 h 391.496 v 29.241 c 0,9.324 -7.559,16.884 -16.884,16.884 H 16.884 C 7.559,46.125 0,38.565 0,29.241 Z"
             style="fill:#293e7d;fill-opacity:1;fill-rule:nonzero;stroke:none"
             id="path297" />
        </g>
        <g
           id="g299"
           transform="translate(405.374,17.9224)">
          <path
             d="m 0,0 h -298.748 c -9.112,0 -16.499,7.387 -16.499,16.499 V 154.365 H 16.499 V 16.499 C 16.499,7.387 9.112,0 0,0"
             style="fill:#fafaff;fill-opacity:1;fill-rule:nonzero;stroke:none"
             id="path301" />
        </g>
        <g
           id="g303"
           transform="translate(365.3809,172.2871)">
          <path
             d="m 0,0 v -137.866 c 0,-9.112 -7.387,-16.499 -16.499,-16.499 h 56.492 c 9.112,0 16.499,7.387 16.499,16.499 L 56.492,0 Z"
             style="fill:#e6e6f2;fill-opacity:1;fill-rule:nonzero;stroke:none"
             id="path305" />
        </g>
        <g
           id="g307"
           transform="translate(367.5176,113.5366)">
          <path
             d="m 0,0 h -223.035 c -4.268,0 -7.726,3.459 -7.726,7.727 0,4.267 3.458,7.726 7.726,7.726 H 0 c 4.268,0 7.726,-3.459 7.726,-7.726 C 7.726,3.459 4.268,0 0,0"
             style="fill:#ff4a4a;fill-opacity:1;fill-rule:nonzero;stroke:none"
             id="path309" />
        </g>
        <g
           id="g311"
           transform="translate(367.5176,61.6841)">
          <path
             d="m 0,0 h -223.035 c -4.268,0 -7.726,3.459 -7.726,7.727 0,4.267 3.458,7.726 7.726,7.726 H 0 c 4.268,0 7.726,-3.459 7.726,-7.726 C 7.726,3.459 4.268,0 0,0"
             style="fill:#ff4a4a;fill-opacity:1;fill-rule:nonzero;stroke:none"
             id="path313" />
        </g>
        <g
           id="g315"
           transform="translate(444.6133,292.6167)">
          <path
             d="m 0,0 h -98.739 c -6.965,0 -12.611,5.646 -12.611,12.61 v 15.3 c 0,6.965 5.646,12.611 12.611,12.611 H 0 c 6.965,0 12.61,-5.646 12.61,-12.611 V 12.61 C 12.61,5.646 6.965,0 0,0"
             style="fill:#aae1e7;fill-opacity:1;fill-rule:nonzero;stroke:none"
             id="path317" />
        </g>
        <g
           id="g319"
           transform="translate(444.6133,333.1372)">
          <path
             d="M 0,0 H -43.882 V -40.521 H 0 c 6.965,0 12.61,5.646 12.61,12.611 v 15.3 C 12.61,-5.646 6.965,0 0,0"
             style="fill:#76c0cf;fill-opacity:1;fill-rule:nonzero;stroke:none"
             id="path321" />
        </g>
      </g>
    </g>
  </g>
</svg>
