<?xml version="1.0" encoding="UTF-8" standalone="no"?>
<svg
   version="1.1"
   width="512"
   height="512"
   x="0"
   y="0"
   viewBox="0 0 682.667 682.667"
   style="enable-background:new 0 0 512 512"
   xml:space="preserve"
   class=""
   id="svg15"
   sodipodi:docname="icon.svg"
   inkscape:version="1.3 (0e150ed6c4, 2023-07-21)"
   inkscape:export-filename="icon_256.png"
   inkscape:export-xdpi="48"
   inkscape:export-ydpi="48"
   xmlns:inkscape="http://www.inkscape.org/namespaces/inkscape"
   xmlns:sodipodi="http://sodipodi.sourceforge.net/DTD/sodipodi-0.dtd"
   xmlns="http://www.w3.org/2000/svg"
   xmlns:svg="http://www.w3.org/2000/svg"><defs
     id="defs15"><defs
       id="defs1"><clipPath
         id="a"
         clipPathUnits="userSpaceOnUse"><path
           d="M0 512h512V0H0Z"
           fill="#000000"
           opacity="1"
           data-original="#000000"
           class=""
           id="path1" /></clipPath></defs></defs><sodipodi:namedview
     id="namedview15"
     pagecolor="#ffffff"
     bordercolor="#666666"
     borderopacity="1.0"
     inkscape:showpageshadow="2"
     inkscape:pageopacity="0.0"
     inkscape:pagecheckerboard="0"
     inkscape:deskcolor="#d1d1d1"
     inkscape:zoom="1.6308594"
     inkscape:cx="256"
     inkscape:cy="256"
     inkscape:window-width="1920"
     inkscape:window-height="1011"
     inkscape:window-x="0"
     inkscape:window-y="0"
     inkscape:window-maximized="1"
     inkscape:current-layer="g14" /><g
     clip-path="url(#a)"
     transform="matrix(1.33333,0,0,-1.33333,0,682.667)"
     id="g14"><path
       d="m 96.000287,320.00096 h -40.00012 v 91.62234 c 0,11.2545 10.179092,20.37799 22.73323,20.37799 h 17.26689 z"
       style="fill-opacity:1;fill-rule:nonzero;stroke:none;stroke-width:1.0713"
       fill="#3598dc"
       data-original="#293e7d"
       class=""
       opacity="1"
       id="path2" /><path
       d="m 416.00124,320.00096 h 40.00012 v 91.62234 c 0,11.2545 -10.17909,20.37799 -22.73323,20.37799 h -17.26689 z"
       style="fill-opacity:1;fill-rule:nonzero;stroke:none;stroke-width:1.0713"
       fill="#3598dc"
       data-original="#293e7d"
       class=""
       opacity="1"
       id="path3" /><path
       d="M 424.00127,320.00095 H 88.000263 v 160.17281 c 0,8.74199 7.197142,15.82772 16.076587,15.82772 h 303.84783 c 8.87945,0 16.07659,-7.08573 16.07659,-15.82772 z"
       style="fill-opacity:1;fill-rule:nonzero;stroke:none;stroke-width:1.00495"
       fill="#e7ecf1"
       data-original="#ffe591"
       class=""
       opacity="1"
       id="path4" /><path
       d="M 487.67146,128.00038 H 24.330073 C 10.893033,128.00038 0,138.90313 0,152.35215 v 207.29724 c 0,13.44902 10.893033,24.35176 24.330073,24.35176 H 487.67146 c 13.43804,0 24.33007,-10.90274 24.33007,-24.35176 V 152.35215 c 0,-13.44902 -10.89203,-24.35177 -24.33007,-24.35177"
       style="fill-opacity:1;fill-rule:nonzero;stroke:none;stroke-width:1.00045"
       fill="#22313f"
       data-original="#3a90c8"
       class=""
       opacity="1"
       id="path6" /><path
       d="M 56.000167,128.00039 H 456.00137 v 30.42975 c 0,9.70305 -7.72322,17.57039 -17.25081,17.57039 H 73.25097 c -9.527585,0 -17.250803,-7.86734 -17.250803,-17.57039 z"
       style="fill-opacity:1;fill-rule:nonzero;stroke:none;stroke-width:1.03114"
       fill="#3598dc"
       data-original="#293e7d"
       class=""
       opacity="1"
       id="path8" /><path
       d="M 407.29065,16.000052 H 104.71088 c -9.228871,0 -16.710617,7.65668 -16.710617,17.101336 V 176.00053 H 424.00127 V 33.101388 c 0,-9.444656 -7.48175,-17.101336 -16.71062,-17.101336"
       style="fill-opacity:1;fill-rule:nonzero;stroke:none;stroke-width:1.0246"
       fill="#e7ecf1"
       data-original="#fafaff"
       class=""
       opacity="1"
       id="path9" /><path
       d="M 368.22608,112.00033 H 143.77546 a 7.775038,7.9995062 0 0 0 -7.77505,8.00054 7.7740317,7.9984708 0 0 0 7.77505,7.99951 h 224.45062 a 7.7740317,7.9984708 0 0 0 7.77505,-7.99951 7.775038,7.9995062 0 0 0 -7.77505,-8.00054"
       style="fill-opacity:1;fill-rule:nonzero;stroke:none;stroke-width:1.02077"
       fill="#22313f"
       data-original="#ff4a4a"
       class=""
       opacity="1"
       id="path11" /><path
       d="M 368.22609,64.000191 H 143.77545 a 7.7750382,7.9995067 0 0 0 -7.77504,8.000542 7.7740319,7.9984713 0 0 0 7.77504,7.999506 h 224.45064 a 7.7740319,7.9984713 0 0 0 7.77504,-7.999506 7.7750382,7.9995067 0 0 0 -7.77504,-8.000542"
       style="fill-opacity:1;fill-rule:nonzero;stroke:none;stroke-width:1.02077"
       fill="#22313f"
       data-original="#ff4a4a"
       class=""
       opacity="1"
       id="path12" /><path
       d="M 450.98037,296.00088 H 349.02305 c -7.19202,0 -13.02205,5.57342 -13.02205,12.4479 v 15.10333 c 0,6.87547 5.83003,12.44889 13.02205,12.44889 h 101.95732 c 7.19202,0 13.02101,-5.57342 13.02101,-12.44889 v -15.10333 c 0,-6.87448 -5.82899,-12.4479 -13.02101,-12.4479"
       style="fill-opacity:1;fill-rule:nonzero;stroke:none;stroke-width:1.00962"
       fill="#e7ecf1"
       data-original="#aae1e7"
       class=""
       opacity="1"
       id="path13" /></g></svg>
