<?xml version="1.0" encoding="UTF-8" standalone="no"?>
<svg
   version="1.1"
   width="512"
   height="512"
   x="0"
   y="0"
   viewBox="0 0 682.667 682.667"
   style="enable-background:new 0 0 512 512"
   xml:space="preserve"
   class=""
   id="svg15"
   sodipodi:docname="colored.svg"
   inkscape:version="1.3 (0e150ed6c4, 2023-07-21)"
   inkscape:export-filename="icon_256.png"
   inkscape:export-xdpi="48"
   inkscape:export-ydpi="48"
   xmlns:inkscape="http://www.inkscape.org/namespaces/inkscape"
   xmlns:sodipodi="http://sodipodi.sourceforge.net/DTD/sodipodi-0.dtd"
   xmlns="http://www.w3.org/2000/svg"
   xmlns:svg="http://www.w3.org/2000/svg"><defs
     id="defs15"><defs
       id="defs1"><clipPath
         id="a"
         clipPathUnits="userSpaceOnUse"><path
           d="M0 512h512V0H0Z"
           fill="#000000"
           opacity="1"
           data-original="#000000"
           class=""
           id="path1" /></clipPath></defs></defs><sodipodi:namedview
     id="namedview15"
     pagecolor="#ffffff"
     bordercolor="#666666"
     borderopacity="1.0"
     inkscape:showpageshadow="2"
     inkscape:pageopacity="0.0"
     inkscape:pagecheckerboard="0"
     inkscape:deskcolor="#d1d1d1"
     inkscape:zoom="1"
     inkscape:cx="256"
     inkscape:cy="255.5"
     inkscape:window-width="2560"
     inkscape:window-height="1371"
     inkscape:window-x="0"
     inkscape:window-y="0"
     inkscape:window-maximized="1"
     inkscape:current-layer="g14" /><g
     clip-path="url(#a)"
     transform="matrix(1.33333,0,0,-1.33333,0,682.667)"
     id="g14"><path
       d="M 90.12727,317.46095 H 54.776164 v 90.33227 c 0,11.09603 8.996027,20.09106 20.09106,20.09106 H 90.12727 Z"
       style="fill-opacity:1;fill-rule:nonzero;stroke:none;stroke-width:1"
       fill="#3598dc"
       data-original="#293e7d"
       class=""
       opacity="1"
       id="path2" /><path
       d="m 421.87426,317.46095 h 35.35111 v 90.33227 c 0,11.09603 -8.99603,20.09106 -20.09106,20.09106 h -15.26005 z"
       style="fill-opacity:1;fill-rule:nonzero;stroke:none;stroke-width:1"
       fill="#3598dc"
       data-original="#293e7d"
       class=""
       opacity="1"
       id="path3" /><path
       d="M 421.87426,311.59993 H 90.127269 v 160.63149 c 0,8.76702 7.106021,15.87304 15.873051,15.87304 h 300.00089 c 8.76703,0 15.87305,-7.10602 15.87305,-15.87304 z"
       style="fill-opacity:1;fill-rule:nonzero;stroke:none;stroke-width:0.999997"
       fill="#e7ecf1"
       data-original="#ffe591"
       class=""
       opacity="1"
       id="path4" /><path
       d="M 487.67146,120.18836 H 24.330073 C 10.893033,120.18836 0,131.0814 0,144.51844 v 207.11261 c 0,13.43704 10.893033,24.33007 24.330073,24.33007 H 487.67146 c 13.43804,0 24.33007,-10.89303 24.33007,-24.33007 V 144.51844 c 0,-13.43704 -10.89203,-24.33008 -24.33007,-24.33008"
       style="fill-opacity:1;fill-rule:nonzero;stroke:none;stroke-width:1"
       fill="#22313f"
       data-original="#3a90c8"
       class=""
       opacity="1"
       id="path6" /><path
       d="m 60.25218,120.18836 h 391.49717 v 29.24109 c 0,9.32403 -7.55902,16.88405 -16.88406,16.88405 H 77.136231 c -9.325029,0 -16.884051,-7.56002 -16.884051,-16.88405 z"
       style="fill-opacity:1;fill-rule:nonzero;stroke:none;stroke-width:0.999997"
       fill="#3598dc"
       data-original="#293e7d"
       class=""
       opacity="1"
       id="path8" /><path
       d="M 405.37521,11.948039 H 106.62632 c -9.112029,0 -16.499051,7.387021 -16.499051,16.499047 V 166.3135 H 421.87426 V 28.447086 c 0,-9.112026 -7.38703,-16.499047 -16.49905,-16.499047"
       style="fill-opacity:1;fill-rule:nonzero;stroke:none;stroke-width:1"
       fill="#e7ecf1"
       data-original="#fafaff"
       class=""
       opacity="1"
       id="path9" /><path
       d="M 367.51909,107.56232 H 144.48344 a 7.7260229,7.726022 0 0 0 -7.72603,7.72702 7.7250229,7.725022 0 0 0 7.72603,7.72603 h 223.03565 a 7.7250229,7.725022 0 0 0 7.72603,-7.72603 7.7260229,7.726022 0 0 0 -7.72603,-7.72702"
       style="fill-opacity:1;fill-rule:nonzero;stroke:none;stroke-width:1"
       fill="#22313f"
       data-original="#ff4a4a"
       class=""
       opacity="1"
       id="path11" /><path
       d="M 367.5191,55.710167 H 144.48343 a 7.7260231,7.7260234 0 0 0 -7.72602,7.727023 7.7250231,7.7250234 0 0 0 7.72602,7.726023 H 367.5191 a 7.7250231,7.7250234 0 0 0 7.72602,-7.726023 7.7260231,7.7260234 0 0 0 -7.72602,-7.727023"
       style="fill-opacity:1;fill-rule:nonzero;stroke:none;stroke-width:1.00001"
       fill="#22313f"
       data-original="#ff4a4a"
       class=""
       opacity="1"
       id="path12" /><path
       d="m 444.61434,286.64386 h -98.7393 c -6.96502,0 -12.61104,5.64601 -12.61104,12.61003 v 15.30005 c 0,6.96503 5.64602,12.61104 12.61104,12.61104 h 98.7393 c 6.96502,0 12.61003,-5.64601 12.61003,-12.61104 v -15.30005 c 0,-6.96402 -5.64501,-12.61003 -12.61003,-12.61003"
       style="fill-opacity:1;fill-rule:nonzero;stroke:none;stroke-width:1.00001"
       fill="#e7ecf1"
       data-original="#aae1e7"
       class=""
       opacity="1"
       id="path13" /></g></svg>
